File size: 705 MiB
Duration: 1h 35mn
Overall bit rate: 1 034 Kbps

Video
ID: 0
Format: MPEG-4 Visual
Format profile: Advanced Simple@L5
Format settings, BVOP: Yes
Format settings, QPel: No
Format settings, GMC: No warppoints
Format settings, Matrix: Default (H.263)
Codec ID: XVID
Codec ID/Hint: XviD
Duration: 1h 35mn
Bit rate: 897 Kbps
Width: 640 pixels
Height: 272 pixels
Display aspect ratio: 2.35:1
Frame rate: 23.976 fps
Color space: YUV
Chroma subsampling: 4:2:0
Bit depth: 8 bits
Scan type: Progressive
Compression mode: Lossy
Bits/(Pixel*Frame): 0.215
Stream size: 611 MiB (87%)
Writing library: XviD 1.2.1 (UTC 2008-12-04)

Audio
ID: 1
Format: MPEG Audio
Format version: Version 1
Format profile: Layer 3
Mode: Joint stereo
Mode extension: MS Stereo
Codec ID: 55
Codec ID/Hint: MP3
Duration: 1h 35mn
Bit rate mode: Constant
Bit rate: 128 Kbps
Channel(s): 2 channels
Sampling rate: 48.0 KHz
Compression mode: Lossy
Stream size: 87.2 MiB (12%)
Alignment: Aligned on interleaves
Interleave, duration: 24 ms (0.58 video frame)
Interleave, preload duration: 504 ms
Title: VTS_01_1 T80 3_2ch 384Kbps DELAY 0ms
Writing library: LAME3.98r


Imdb Link:http://www.imdb.com/title/tt1231583/


Robert Downey Jr. ... Peter Highman 
Zach Galifianakis ... Ethan Tremblay / Ethan Chase 
Michelle Monaghan ... Sarah Highman 
Jamie Foxx ... Darryl 
Juliette Lewis ... Heidi 
Danny McBride ... Lonnie 
RZA ... Airport Screener 

Peter Highman (Robert Downey Jr.) must get to LA in five days to be at the birth of his firstborn. He is about to fly home from Atlanta when his luggage and wallet are sent to LA without him, and he is put on the "no-fly" list. Desperate to get home Peter is forced to accept the offer of Ethan Tremblay (Zach Galifianakis) to hitch a ride with him cross-country. Peter is about to go on the most terrifying and agonizing journey of his life.


Source>>>>>>>>>>>>>>TWiZTED (Thanks)

Sample Provided


Greets:

*THC*,HiTM4N,MUSE,PrisM,DiGiTaL iNK,ViSiON,LEGi0N,FLAWL3SS,Rx,Hibees,aXXo,xXTHORNXx,Noir,IMAGiNE
PDU,ELEKTRI4KA,KART3LDVD,CTFX,202122,rosco,Toon,StevieL,skrufern + Zia,Smelly and Fabreezy bro.